<svg xmlns="http://www.w3.org/2000/svg" width="23.625" height="21" viewBox="0 0 23.625 21">
  <path id="Icon_awesome-external-link-alt" data-name="Icon awesome-external-link-alt" d="M23.625.984V6.234a.985.985,0,0,1-1.68.7L20.48,5.465l-9.988,9.988a.984.984,0,0,1-1.392,0l-.928-.928a.984.984,0,0,1,0-1.392L18.16,3.145,16.7,1.68a.985.985,0,0,1,.7-1.68h5.249A.984.984,0,0,1,23.625.984Zm-6.93,10.122-.656.656a.984.984,0,0,0-.288.7v5.916H2.625V5.25H13.453a.984.984,0,0,0,.7-.288l.656-.656a.984.984,0,0,0-.7-1.68H1.969A1.969,1.969,0,0,0,0,4.594V19.031A1.969,1.969,0,0,0,1.969,21H16.406a1.969,1.969,0,0,0,1.969-1.969V11.8A.984.984,0,0,0,16.695,11.107Z" fill="#094067"/>
</svg>
